<?xml version="1.0" encoding="utf-8"?>
<!-- Generator: Adobe Illustrator 21.1.0, SVG Export Plug-In . SVG Version: 6.00 Build 0)  -->
<!DOCTYPE svg PUBLIC "-//W3C//DTD SVG 1.1//EN" "http://www.w3.org/Graphics/SVG/1.1/DTD/svg11.dtd">
<svg version="1.1" id="Layer_1" xmlns="http://www.w3.org/2000/svg" xmlns:xlink="http://www.w3.org/1999/xlink" x="0px" y="0px"
	 viewBox="0 0 800 245" style="enable-background:new 0 0 800 245;" xml:space="preserve">
<style type="text/css">
	.st0{clip-path:url(#SVGID_2_);}
	.st1{fill:#4A89DC;}
	.st2{opacity:5.000000e-02;}
	.st3{fill:#FFFFFF;}
	.st4{opacity:5.000000e-02;fill:#FFFFFF;enable-background:new    ;}
	.st5{opacity:0.1;clip-path:url(#SVGID_4_);fill:#FFFFFF;enable-background:new    ;}
	.st6{opacity:0.1;clip-path:url(#SVGID_6_);fill:#FFFFFF;enable-background:new    ;}
</style>
<g>
	<g>
		<defs>
			<rect id="SVGID_1_" y="-3" width="799" height="248.3"/>
		</defs>
		<clipPath id="SVGID_2_">
			<use xlink:href="#SVGID_1_"  style="overflow:visible;"/>
		</clipPath>
		<g id="Layer_3" class="st0">
			<rect x="-22.3" y="-13.1" class="st1" width="840.1" height="287.1"/>
			<g class="st2">
				<path class="st3" d="M266.3,245.3c-4,0-7.5,0-11.4,0c0-1.1,0-2.1,0-3c0-70.4,0-140.9,0-211.3c0-0.8-0.1-1.5,0-2.2
					c0.3-2.7,2.5-4.8,5.1-5c2.8-0.2,5.2,1.3,5.9,3.9c0.3,1.2,0.4,2.5,0.4,3.8c0,70.2,0,140.3,0,210.5
					C266.3,243,266.3,244,266.3,245.3z"/>
				<path class="st3" d="M233.2,245.3c-4,0-7.6,0-11.5,0c0-1.1,0-2.1,0-3c0-53.3,0-106.6,0-159.8c0-1,0-2.1,0.2-3
					c0.7-2.5,3.4-4.5,5.8-4.3c2.5,0.2,5,2.5,5.4,5.2c0.1,0.7,0.1,1.5,0.1,2.2c0,53.3,0,106.6,0,159.8
					C233.2,243.2,233.2,244.1,233.2,245.3z"/>
				<path class="st3" d="M67.9,245.3c-3.9,0-7.5,0-11.3,0c-0.1-0.8-0.2-1.7-0.2-2.4c0-49.4,0-98.9,0-148.3c0-4.1,2-6.6,5.3-6.8
					c3.2-0.2,5.8,1.9,6.1,5.1c0.1,0.6,0,1.3,0,1.9c0,49.2,0,98.5,0,147.8C67.9,243.4,67.9,244.2,67.9,245.3z"/>
				<path class="st3" d="M101,245.3c-4,0-7.5,0-11.5,0c0-1.1,0-2.1,0-3.1c0-39.9,0-79.9,0-119.8c0-0.8,0-1.5,0.1-2.2
					c0.4-2.9,3.2-5.4,5.9-5.3c2.7,0.1,5.3,2.8,5.5,5.6c0.1,0.6,0,1.3,0,1.9c0,39.9,0,79.9,0,119.8C101,243.2,101,244.1,101,245.3z"
					/>
				<path class="st3" d="M200.2,245.3c-3.9,0-7.5,0-11.5,0c0-0.9,0-1.8,0-2.6c0-36.6,0-73.2,0-109.8c0-5,3.3-7.7,7.5-6.4
					c2.3,0.7,3.4,2.4,3.8,4.6c0.2,0.7,0.1,1.5,0.1,2.2c0,36.4,0,72.9,0,109.3C200.2,243.3,200.2,244.1,200.2,245.3z"/>
				<path class="st3" d="M34.8,245.3c-3.9,0-7.5,0-11.5,0c0-1.1,0-2.1,0-3c0-34.8,0-69.6,0-104.4c0-2.5,0.4-4.8,2.6-6.3
					c3.5-2.3,8.3-0.1,8.8,4.1c0.1,0.6,0,1.3,0,1.9c0,35,0,70,0,105C34.8,243.4,34.8,244.2,34.8,245.3z"/>
				<path class="st3" d="M134,245.3c-4,0-7.5,0-11.5,0c0-1,0-1.9,0-2.8c0-30.4,0-60.8,0-91.2c0-2.4,0.5-4.6,2.6-6
					c3.5-2.3,8.2-0.1,8.8,4.1c0.1,0.6,0.1,1.3,0.1,1.9c0,30.4,0,60.8,0,91.2C134,243.4,134,244.2,134,245.3z"/>
				<path class="st3" d="M167.1,245.3c-3.9,0-7.5,0-11.3,0c-0.1-0.7-0.2-1.4-0.2-2.1c0-21.9,0-43.8,0-65.7c0-4.9,3.5-7.7,7.7-6.2
					c2.8,1,3.8,3.2,3.8,6.1c0,7.5,0,15.1,0,22.6c0,14,0,28,0,42C167.1,243,167.1,244,167.1,245.3z"/>
				<path class="st3" d="M1.6,245.3c-3.7,0-7.3,0-11.1,0c-0.1-0.8-0.2-1.6-0.2-2.4c0-20.2,0-40.5,0-60.7c0-3.6,1.6-6,4.3-6.6
					c4-0.9,7.1,1.7,7.1,6.1c0,12.3,0,24.6,0,37c0,7.9,0,15.8,0,23.7C1.8,243.4,1.7,244.3,1.6,245.3z"/>
				<path class="st3" d="M663.1,245.3c-3.9,0-7.5,0-11.3,0c-0.1-0.8-0.2-1.7-0.2-2.4c0-49.4,0-98.9,0-148.3c0-4.1,2-6.6,5.3-6.8
					c3.2-0.2,5.8,1.9,6.1,5.1c0.1,0.6,0,1.3,0,1.9c0,49.2,0,98.5,0,147.8C663.1,243.4,663.1,244.2,663.1,245.3z"/>
				<path class="st3" d="M696.1,245.3c-4,0-7.5,0-11.5,0c0-1.1,0-2.1,0-3.1c0-39.9,0-79.9,0-119.8c0-0.8,0-1.5,0.1-2.2
					c0.4-2.9,3.2-5.4,5.9-5.3s5.3,2.8,5.5,5.6c0.1,0.6,0,1.3,0,1.9c0,39.9,0,79.9,0,119.8C696.1,243.2,696.1,244.1,696.1,245.3z"/>
				<path class="st3" d="M795.3,245.3c-3.9,0-7.5,0-11.5,0c0-0.9,0-1.8,0-2.6c0-36.6,0-73.2,0-109.8c0-5,3.3-7.7,7.5-6.4
					c2.3,0.7,3.4,2.4,3.8,4.6c0.2,0.7,0.1,1.5,0.1,2.2c0,36.4,0,72.9,0,109.3C795.3,243.3,795.3,244.1,795.3,245.3z"/>
				<path class="st3" d="M630,245.3c-3.9,0-7.5,0-11.5,0c0-1.1,0-2.1,0-3c0-34.8,0-69.6,0-104.4c0-2.5,0.4-4.8,2.6-6.3
					c3.5-2.3,8.3-0.1,8.8,4.1c0.1,0.6,0,1.3,0,1.9c0,35,0,70,0,105C630,243.4,630,244.2,630,245.3z"/>
				<path class="st3" d="M729.2,245.3c-4,0-7.5,0-11.5,0c0-1,0-1.9,0-2.8c0-30.4,0-60.8,0-91.2c0-2.4,0.5-4.6,2.6-6
					c3.5-2.3,8.2-0.1,8.8,4.1c0.1,0.6,0.1,1.3,0.1,1.9c0,30.4,0,60.8,0,91.2C729.2,243.4,729.2,244.2,729.2,245.3z"/>
				<path class="st3" d="M762.2,245.3c-3.9,0-7.5,0-11.3,0c-0.1-0.7-0.2-1.4-0.2-2.1c0-21.9,0-43.8,0-65.7c0-4.9,3.5-7.7,7.7-6.2
					c2.8,1,3.8,3.2,3.8,6.1c0,7.5,0,15.1,0,22.6c0,14,0,28,0,42C762.2,243,762.2,244,762.2,245.3z"/>
				<path class="st3" d="M596.8,245.3c-3.7,0-7.3,0-11.1,0c-0.1-0.8-0.2-1.6-0.2-2.4c0-20.2,0-40.5,0-60.7c0-3.6,1.6-6,4.3-6.6
					c4-0.9,7.1,1.7,7.1,6.1c0,12.3,0,24.6,0,37c0,7.9,0,15.8,0,23.7C596.9,243.4,596.8,244.3,596.8,245.3z"/>
				<path class="st3" d="M287.9,245.3c4,0,7.5,0,11.4,0c0-1.1,0-2.1,0-3c0-70.4,0-140.9,0-211.3c0-0.8,0.1-1.5,0-2.2
					c-0.3-2.7-2.5-4.8-5.1-5c-2.8-0.2-5.2,1.3-5.9,3.9c-0.3,1.2-0.4,2.5-0.4,3.8c0,70.2,0,140.3,0,210.5
					C287.9,243,287.9,244,287.9,245.3z"/>
				<path class="st3" d="M320.9,245.3c4,0,7.6,0,11.5,0c0-1.1,0-2.1,0-3c0-53.3,0-106.6,0-159.8c0-1,0-2.1-0.3-3
					c-0.7-2.5-3.4-4.5-5.8-4.3c-2.5,0.2-5,2.5-5.4,5.2c-0.1,0.7-0.1,1.5-0.1,2.2c0,53.3,0,106.6,0,159.8
					C320.9,243.2,320.9,244.1,320.9,245.3z"/>
				<path class="st3" d="M486.3,245.3c3.9,0,7.5,0,11.3,0c0.1-0.8,0.2-1.7,0.2-2.4c0-49.4,0-98.9,0-148.3c0-4.1-2-6.6-5.3-6.8
					c-3.2-0.2-5.8,1.9-6.1,5.1c-0.1,0.6,0,1.3,0,1.9c0,49.2,0,98.5,0,147.8C486.3,243.4,486.3,244.2,486.3,245.3z"/>
				<path class="st3" d="M453.2,245.3c4,0,7.5,0,11.5,0c0-1.1,0-2.1,0-3.1c0-39.9,0-79.9,0-119.8c0-0.8,0-1.5-0.1-2.2
					c-0.4-2.9-3.2-5.4-5.9-5.3c-2.7,0.1-5.3,2.8-5.5,5.6c-0.1,0.6,0,1.3,0,1.9c0,39.9,0,79.9,0,119.8
					C453.2,243.2,453.2,244.1,453.2,245.3z"/>
				<path class="st3" d="M354,245.3c3.9,0,7.5,0,11.5,0c0-0.9,0-1.8,0-2.6c0-36.6,0-73.2,0-109.8c0-5-3.3-7.7-7.5-6.4
					c-2.3,0.7-3.4,2.4-3.8,4.6c-0.2,0.7-0.1,1.5-0.1,2.2c0,36.4,0,72.9,0,109.3C354,243.3,354,244.1,354,245.3z"/>
				<path class="st3" d="M519.3,245.3c3.9,0,7.5,0,11.5,0c0-1.1,0-2.1,0-3c0-34.8,0-69.6,0-104.4c0-2.5-0.4-4.8-2.6-6.3
					c-3.5-2.3-8.2-0.1-8.8,4.1c-0.1,0.6,0,1.3,0,1.9c0,35,0,70,0,105C519.3,243.4,519.3,244.2,519.3,245.3z"/>
				<path class="st3" d="M420.1,245.3c4,0,7.5,0,11.5,0c0-1,0-1.9,0-2.8c0-30.4,0-60.8,0-91.2c0-2.4-0.5-4.6-2.6-6
					c-3.5-2.3-8.2-0.1-8.8,4.1c-0.1,0.6-0.1,1.3-0.1,1.9c0,30.4,0,60.8,0,91.2C420.1,243.4,420.1,244.2,420.1,245.3z"/>
				<path class="st3" d="M387.1,245.3c3.9,0,7.5,0,11.3,0c0.1-0.7,0.2-1.4,0.2-2.1c0-21.9,0-43.8,0-65.7c0-4.9-3.5-7.7-7.7-6.2
					c-2.8,1-3.8,3.2-3.8,6.1c0,7.5,0,15.1,0,22.6c0,14,0,28,0,42C387.1,243,387.1,244,387.1,245.3z"/>
				<path class="st3" d="M552.5,245.3c3.7,0,7.3,0,11.1,0c0.1-0.8,0.2-1.6,0.2-2.4c0-20.2,0-40.5,0-60.7c0-3.6-1.6-6-4.3-6.6
					c-4-0.9-7.1,1.7-7.1,6.1c0,12.3,0,24.6,0,37c0,7.9,0,15.8,0,23.7C552.4,243.4,552.5,244.3,552.5,245.3z"/>
			</g>
			<polygon class="st4" points="-91.2,232.7 -35,119.5 75,192.3 200.4,17.5 322.8,167.9 432.8,61.4 520.5,177.9 611.7,61.4 
				732.6,166.4 814.2,25.7 814.2,262.2 -96.2,261.2 			"/>
			<polygon class="st4" points="-25.7,239.8 30,135.6 139,202.6 263.2,41.9 384.4,180.1 493.5,82.2 580.3,189.3 670.6,82.2 
				790.4,178.8 871.2,49.4 871.2,266.9 -30.7,266 			"/>
			<polygon class="st4" points="-201.5,331.9 -136.4,200.6 -8.8,285 136.6,82.4 278.5,256.7 406.1,133.3 507.8,268.3 613.5,133.3 
				753.7,255 848.3,91.9 848.3,366.1 -207.4,365 			"/>
		</g>
	</g>
	<g>
		<defs>
			<rect id="SVGID_3_" x="197.4" y="-4.6" width="799" height="248.3"/>
		</defs>
		<clipPath id="SVGID_4_">
			<use xlink:href="#SVGID_3_"  style="overflow:visible;"/>
		</clipPath>
		<path class="st5" d="M400.5,150.9c6.3,0.1,14.3,6.3,14.3,12.8c0,2.4,1.5,3.8,3.6,4.6c7.7,2.8,15.5,5.5,23.2,8.4
			c6.3,2.3,12.5,4.8,18.7,7c0.9,0.3,2.6-0.1,3.2-0.8c8-8.7,15.9-17.6,23.8-26.4c3.5-3.9,7-8,10.8-11.7c1.7-1.7,1.9-3.3,0.9-5.3
			c-2.8-6.2-1.3-13.2,4.1-17.4c9.5-7.6,21.2-1.1,23.5,7.9c1.9,7.3-2.3,14.3-8.1,17c-3.4,1.6-7.1,1.7-10.6,0.5
			c-2.3-0.8-3.6-0.1-5.1,1.7c-4.8,5.7-9.9,11.2-14.9,16.7c-6.9,7.6-13.8,15.1-20.6,22.7c-3,3.4-3.1,3.3-7.2,1.8
			c-7.8-2.9-15.6-5.6-23.4-8.5c-6.3-2.3-12.5-4.6-18.8-7c-3.8-1.4-4-1.5-6.7,1.5c-4.4,4.8-12.2,6-17.7,2.6c-2.1-1.3-3.6-1.1-5.5,0.5
			c-8.4,7.3-16.9,14.3-25.4,21.5c-5.9,5-11.7,10-17.6,14.9c-1.4,1.1-1.9,2.2-1.5,4.2c1.6,7.3-2.6,13.9-9.3,16.4
			c-8.5,3.3-17.2-2.6-19.2-10.4c-0.6-2.3-1.8-3.1-4-3.7c-10.5-2.8-20.9-5.9-31.3-8.9c-5.2-1.5-10.3-3-15.5-4.4
			c-1.6-0.4-2.6,0.1-3.4,1.5c-4.4,7.1-13.3,9.1-20.3,4.6c-1.5-1-2.6-0.9-3.9,0.2c-18.3,14.4-36.7,28.8-55,43.2
			c-1.3,1-2.6,2.1-4.4,1.2c-2.5-1.4-2.5-4.1,0-6c5.7-4.4,11.4-8.8,17.1-13.3c12.7-9.9,25.3-19.8,38-29.7c1.6-1.3,2.2-2.5,1.7-4.7
			c-2-9.5,4.7-17.5,13.9-17.9c6.9-0.3,12.2,3.3,14.6,10.9c0.8,2.5,2,3.6,4.5,4.2c8.3,2.2,16.5,4.7,24.8,7.1
			c7.2,2.1,14.5,4.2,21.7,6.3c1.4,0.4,2.3,0.1,3-1.2c3.9-7.4,13.8-10.1,21-4.9c1.5,1.1,2.8,0.8,4.2-0.3
			c11.1-9.4,22.3-18.7,33.4-28.1c3.4-2.8,6.7-5.7,10-8.5c1.3-1.1,1.8-2.3,1.2-4.2c-1.8-5.7,1.6-13.3,7.2-16
			C395.7,152.3,398.1,151.7,400.5,150.9z M337.5,222.7c0-4.4-3.9-8.2-8.4-8.3c-4.2,0-8.3,4-8,8.2c0.4,4.7,3.1,7.9,8.3,8.2
			C333.5,231,337.5,226.8,337.5,222.7z M511.9,141.8c4.8-0.1,8.7-3.9,8.6-8.5c-0.1-4.1-4.3-8.2-8.3-8c-4.3,0.1-8.2,4.1-8.1,8.2
			C504.2,137.6,508.2,141.8,511.9,141.8z M408.9,165.8c-0.1-3.7-4.4-7.8-8.3-7.8c-4.2,0-8.4,4-8.3,8c0,4.1,4.2,8.6,7.9,8.5
			C404.8,174.4,409,170.3,408.9,165.8z M248.3,211.1c4.4,0,8.2-3.6,8.3-7.9c0.1-3.5-2.7-8.4-8.5-8.4c-4.2,0-7.7,3.6-7.8,8.1
			C240.2,207.2,243.9,211,248.3,211.1z"/>
	</g>
	<g>
		<defs>
			<rect id="SVGID_5_" x="197.4" y="-4.6" width="799" height="248.3"/>
		</defs>
		<clipPath id="SVGID_6_">
			<use xlink:href="#SVGID_5_"  style="overflow:visible;"/>
		</clipPath>
		<path class="st6" d="M725.9-19.4c6.2-0.9,15.1,4,16.1,10.5c0.4,2.4,2,3.6,4.2,4c8.1,1.6,16.1,3.1,24.2,4.7c6.5,1.3,13,2.8,19.6,4
			c0.9,0.2,2.5-0.5,3-1.3c6.6-9.9,13-19.8,19.4-29.7c2.9-4.4,5.7-8.9,8.8-13.2c1.4-2,1.3-3.5,0.1-5.4c-3.8-5.7-3.3-12.8,1.3-17.8
			c8.2-9,20.8-4.3,24.4,4.2c3,7-0.1,14.5-5.4,18.1c-3.1,2.1-6.7,2.7-10.4,2.1c-2.4-0.4-3.6,0.5-4.8,2.5c-3.9,6.4-8,12.6-12.1,18.8
			C808.7-9.3,803-0.8,797.4,7.7c-2.5,3.8-2.5,3.8-6.8,2.9c-8.1-1.7-16.3-3.2-24.4-4.8c-6.6-1.3-13.1-2.6-19.6-4.1
			c-3.9-0.8-4.2-0.8-6.4,2.5c-3.6,5.4-11.2,7.8-17.1,5.3c-2.3-1-3.8-0.6-5.4,1.4c-7.2,8.5-14.5,16.8-21.7,25.1
			c-5,5.8-10,11.7-15.1,17.5c-1.2,1.3-1.5,2.5-0.8,4.3c2.7,6.9-0.4,14.1-6.7,17.7c-7.9,4.5-17.4,0.1-20.6-7.3
			c-0.9-2.2-2.2-2.7-4.5-3c-10.8-1.2-21.5-2.6-32.3-4c-5.3-0.7-10.7-1.3-16-2c-1.6-0.2-2.5,0.5-3.2,2c-3.2,7.7-11.7,11.1-19.3,7.6
			c-1.6-0.7-2.7-0.4-3.9,0.8c-15.9,17.1-31.8,34.1-47.7,51.1c-1.1,1.2-2.2,2.5-4.1,1.8c-2.7-1-3.1-3.7-0.9-6
			c5-5.3,10-10.5,14.9-15.8c11-11.7,22-23.5,33-35.2c1.4-1.5,1.8-2.8,1-5c-3.4-9,1.9-18,11-19.8c6.7-1.3,12.5,1.4,16.1,8.5
			c1.2,2.3,2.6,3.2,5.1,3.5c8.6,0.9,17.1,2.1,25.6,3.2c7.5,1,14.9,1.9,22.4,2.9c1.4,0.2,2.3-0.3,2.8-1.7c2.7-7.9,12.1-12.1,20-8.1
			c1.6,0.8,2.9,0.4,4.1-1c9.5-11,19.1-21.9,28.7-32.9c2.9-3.3,5.7-6.7,8.6-10c1.1-1.3,1.5-2.6,0.6-4.4c-2.7-5.4-0.4-13.4,4.7-16.9
			C721.3-17.3,723.6-18.3,725.9-19.4z M674.7,61.2c-0.6-4.3-5.1-7.5-9.6-6.9c-4.1,0.6-7.6,5.2-6.6,9.3c1.1,4.6,4.3,7.3,9.5,6.8
			C672,70,675.3,65.3,674.7,61.2z M834.6-45.6c4.7-0.8,8-5.2,7.2-9.7c-0.7-4-5.5-7.4-9.5-6.7c-4.2,0.8-7.5,5.3-6.7,9.4
			C826.3-48.6,830.9-45,834.6-45.6z M736.5-5.9c-0.6-3.7-5.5-7.1-9.4-6.5c-4.1,0.6-7.7,5.3-7,9.2c0.7,4.1,5.5,7.9,9.1,7.2
			C733.7,3.2,737.2-1.6,736.5-5.9z M584.7,63.5c4.4-0.6,7.6-4.8,7-9.1c-0.5-3.5-4-7.9-9.7-7c-4.2,0.7-7,4.7-6.4,9.2
			C576.1,60.9,580.4,64.1,584.7,63.5z"/>
	</g>
	<g>
		<defs>
			<rect id="SVGID_7_" y="-3" width="799" height="248.3"/>
		</defs>
		<clipPath id="SVGID_8_">
			<use xlink:href="#SVGID_7_"  style="overflow:visible;"/>
		</clipPath>
	</g>
</g>
</svg>
